<svg width="512" height="512" viewBox="0 0 512 512" fill="none" xmlns="http://www.w3.org/2000/svg">
<path d="M484.078 27.923C466.072 9.917 442.131 0.001 416.666 0.002L95.334 0C42.766 0.002 0 42.769 0 95.333V416.666C0 469.233 42.768 512 95.334 512H416.666C469.233 512 512 469.233 512 416.666V95.335C512 69.87 502.084 45.929 484.078 27.923ZM165.865 217.494C171.722 211.637 181.219 211.637 187.078 217.494L241 271.416L240.998 111.399C240.998 103.115 247.714 96.399 255.998 96.399C264.283 96.399 270.998 103.115 270.998 111.399L271 271.412L324.918 217.492C330.775 211.635 340.273 211.635 346.131 217.492C351.989 223.349 351.989 232.847 346.132 238.705L266.606 318.233C263.792 321.047 259.977 322.627 255.999 322.627C252.022 322.627 248.206 321.047 245.394 318.233L165.867 238.707C160.007 232.85 160.007 223.352 165.865 217.494ZM400.602 415.6H111.4C103.117 415.6 96.4 408.884 96.4 400.6C96.4 392.316 103.117 385.6 111.4 385.6H400.601C408.884 385.6 415.601 392.316 415.601 400.6C415.602 408.884 408.885 415.6 400.602 415.6Z" fill="#250187"/>
</svg>
