<svg width="48px" height="48px" viewBox="0 0 1024 1024" data-aut-id="icon" class="" fill-rule="evenodd"><path class="rui-77aaa" d="M640 512c0 70.692-57.308 128-128 128s-128-57.308-128-128c0-70.692 57.308-128 128-128s128 57.308 128 128zM942.933 469.333h-89.6c-17.602-157.359-141.307-281.064-297.136-298.527l-1.531-0.139v-89.6h-85.333v89.6c-157.359 17.602-281.064 141.307-298.527 297.136l-0.139 1.531h-89.6v85.333h89.6c17.602 157.359 141.307 281.064 297.136 298.527l1.531 0.139v89.6h85.333v-89.6c157.359-17.602 281.064-141.307 298.527-297.136l0.139-1.531h89.6zM512 772.267c-143.741 0-260.267-116.525-260.267-260.267s116.525-260.267 260.267-260.267c143.741 0 260.267 116.525 260.267 260.267v0c0 143.741-116.525 260.267-260.267 260.267v0z"></path></svg>

<!doctype html>
<svg width="30px" height="30px" viewBox="-54.013 -62.286 591.544 590.692">
  <path class="rui-77aaa" d="M 303.39 233.06 C 303.39 267.773 275.797 295.915 241.759 295.915 C 207.721 295.915 180.128 267.773 180.128 233.06 C 180.128 198.346 207.721 170.205 241.759 170.205 C 275.797 170.205 303.39 198.346 303.39 233.06 Z M 449.249 212.108 L 406.107 212.108 C 397.632 134.836 338.07 74.09 263.039 65.514 L 262.303 65.447 L 262.303 21.448 L 221.216 21.448 L 221.216 65.447 C 145.447 74.09 85.885 134.836 77.477 211.357 L 77.411 212.108 L 34.268 212.108 L 34.268 254.011 L 77.411 254.011 C 85.885 331.283 145.447 392.029 220.479 400.604 L 221.216 400.673 L 221.216 444.672 L 262.303 444.672 L 262.303 400.673 C 338.07 392.029 397.632 331.283 406.041 254.763 L 406.107 254.01 L 449.249 254.01 Z M 241.759 360.865 C 172.549 360.865 116.442 303.644 116.442 233.06 C 116.442 162.475 172.548 105.255 241.759 105.255 C 310.969 105.255 367.075 162.475 367.075 233.06 L 367.075 233.06 C 367.075 303.644 310.969 360.865 241.759 360.865 L 241.759 360.865 Z" style="fill: rgb(23, 62, 153);" transform="matrix(0.653585, 0.756853, -0.756853, 0.653585, 260.141083, -102.240189)"></path>
</svg>