<?xml version="1.0" encoding="utf-8"?>
<!-- Generator: Adobe Illustrator 24.1.3, SVG Export Plug-In . SVG Version: 6.00 Build 0)  -->
<svg version="1.1" id="Layer_1" xmlns="http://www.w3.org/2000/svg" xmlns:xlink="http://www.w3.org/1999/xlink" x="0px" y="0px"
	 viewBox="0 0 637.5 200" style="enable-background:new 0 0 637.5 200;" xml:space="preserve">
<style type="text/css">
	.st0{fill:#636363;}
	.st1{fill:#250187;}
	.st2{fill:#FF6700;}
	.st3{fill:#FFFFFF;}
</style>
<g>
	<g>
		<path class="st0" d="M235.59,166.46c0.98,1.2,1.47,2.76,1.47,4.69c0,3.06-0.89,5.24-2.67,6.55c-1.78,1.31-3.95,1.96-6.51,1.96
			h-10.62c-0.55,0-1.02-0.19-1.4-0.58c-0.39-0.39-0.58-0.85-0.58-1.4v-24.95c0-0.55,0.19-1.02,0.58-1.4
			c0.38-0.39,0.85-0.58,1.4-0.58h10.62c2.51,0,4.41,0.62,5.72,1.86c1.31,1.24,1.96,3.03,1.96,5.37c0,1.32-0.32,2.5-0.95,3.53
			s-1.56,1.82-2.77,2.38C233.37,164.4,234.62,165.26,235.59,166.46z M230.27,155.63c-0.7-0.67-1.69-1.01-2.95-1.01h-7.81v8.06h7.89
			c1.13-0.03,2.07-0.39,2.81-1.09c0.74-0.7,1.12-1.7,1.12-3C231.32,157.29,230.97,156.31,230.27,155.63z M231.48,174.68
			c0.91-0.78,1.36-1.96,1.36-3.53c0-3.06-1.74-4.59-5.21-4.59h-8.14v9.3h8.35C229.36,175.86,230.58,175.46,231.48,174.68z"/>
		<path class="st0" d="M269.1,151.25c0.34,0.37,0.52,0.85,0.52,1.43v15.86c0,2.18-0.48,4.13-1.45,5.87
			c-0.96,1.74-2.29,3.09-3.99,4.07c-1.69,0.98-3.6,1.47-5.72,1.47c-2.15,0-4.08-0.49-5.78-1.47c-1.71-0.98-3.04-2.33-4.01-4.07
			c-0.96-1.73-1.45-3.69-1.45-5.87v-15.86c0-0.58,0.19-1.05,0.58-1.43c0.38-0.37,0.88-0.56,1.49-0.56c0.52,0,0.98,0.19,1.38,0.58
			c0.4,0.39,0.6,0.85,0.6,1.4v15.86c0,1.43,0.33,2.72,0.99,3.86c0.66,1.14,1.54,2.03,2.64,2.66c1.1,0.63,2.29,0.95,3.55,0.95
			c1.32,0,2.55-0.32,3.68-0.95c1.13-0.63,2.03-1.52,2.71-2.66c0.67-1.14,1.01-2.43,1.01-3.86v-15.86c0-0.58,0.17-1.05,0.5-1.43
			c0.33-0.37,0.78-0.56,1.36-0.56C268.3,150.7,268.76,150.88,269.1,151.25z"/>
		<path class="st0" d="M300.89,153.84l-8.88,12.52v11.32c0,0.55-0.19,1.02-0.56,1.4c-0.37,0.39-0.82,0.58-1.34,0.58
			c-0.55,0-1.02-0.19-1.41-0.58c-0.39-0.39-0.58-0.85-0.58-1.4v-11.65l-8.84-11.94c-0.39-0.5-0.58-0.99-0.58-1.49
			c0-0.55,0.22-1.02,0.66-1.4s0.92-0.58,1.45-0.58c0.63,0,1.17,0.3,1.61,0.91l7.77,10.74l7.48-10.7c0.44-0.63,0.99-0.95,1.65-0.95
			c0.52,0,0.98,0.19,1.36,0.58c0.38,0.39,0.58,0.85,0.58,1.4C301.26,153.01,301.14,153.42,300.89,153.84z"/>
		<path class="st0" d="M346.46,179.22c-1.54-0.56-3.02-1.48-4.42-2.75c-0.58-0.5-0.87-1.06-0.87-1.69c0-0.5,0.19-0.94,0.58-1.34
			c0.38-0.4,0.84-0.6,1.36-0.6c0.47,0,0.87,0.15,1.2,0.45c1.1,1.02,2.24,1.77,3.41,2.25c1.17,0.48,2.5,0.72,3.99,0.72
			c1.74,0,3.2-0.4,4.4-1.2c1.2-0.8,1.8-1.8,1.8-3.02c-0.03-1.43-0.63-2.54-1.8-3.33c-1.17-0.79-2.95-1.44-5.35-1.96
			c-2.84-0.58-5.02-1.53-6.55-2.85c-1.53-1.32-2.29-3.15-2.29-5.49c0-1.62,0.43-3.05,1.28-4.28c0.85-1.23,2.04-2.17,3.55-2.83
			c1.51-0.66,3.22-0.99,5.12-0.99c1.71,0,3.32,0.28,4.83,0.83c1.51,0.55,2.74,1.28,3.68,2.19c0.63,0.55,0.95,1.14,0.95,1.78
			c0,0.5-0.19,0.94-0.56,1.32c-0.37,0.39-0.82,0.58-1.34,0.58c-0.39,0-0.7-0.11-0.95-0.33c-0.72-0.72-1.71-1.32-2.97-1.82
			s-2.48-0.74-3.63-0.74c-1.85,0-3.31,0.38-4.4,1.14c-1.09,0.76-1.63,1.76-1.63,3c0,1.35,0.54,2.38,1.63,3.1
			c1.09,0.72,2.71,1.32,4.85,1.82c2.15,0.47,3.9,1.02,5.27,1.65c1.36,0.63,2.42,1.52,3.16,2.64c0.74,1.13,1.12,2.6,1.12,4.42
			c0,1.6-0.45,3.02-1.34,4.26c-0.9,1.24-2.11,2.2-3.66,2.89c-1.54,0.69-3.24,1.03-5.08,1.03C349.78,180.07,348,179.79,346.46,179.22
			z"/>
		<path class="st0" d="M389.78,176.44c0.37,0.39,0.56,0.84,0.56,1.36c0,0.55-0.19,1-0.56,1.34c-0.37,0.34-0.85,0.52-1.43,0.52
			h-14.38c-0.55,0-1.02-0.19-1.4-0.58c-0.39-0.39-0.58-0.85-0.58-1.4v-24.95c0-0.55,0.19-1.02,0.58-1.4
			c0.38-0.39,0.85-0.58,1.4-0.58h14.38c0.58,0,1.05,0.18,1.43,0.54c0.37,0.36,0.56,0.83,0.56,1.4c0,0.55-0.19,1-0.56,1.34
			c-0.37,0.34-0.85,0.52-1.43,0.52h-12.27v8.43h10.41c0.58,0,1.05,0.18,1.43,0.54c0.37,0.36,0.56,0.81,0.56,1.36
			c0,0.58-0.19,1.03-0.56,1.36s-0.85,0.5-1.43,0.5h-10.41v9.13h12.27C388.93,175.86,389.4,176.05,389.78,176.44z"/>
		<path class="st0" d="M417.83,176.35c0.37,0.36,0.56,0.83,0.56,1.4c0,0.55-0.19,1.01-0.56,1.36c-0.37,0.36-0.85,0.54-1.43,0.54
			h-13.96c-0.58,0-1.05-0.19-1.43-0.58c-0.37-0.39-0.56-0.85-0.56-1.4v-24.95c0-0.55,0.19-1.02,0.58-1.4
			c0.38-0.39,0.88-0.58,1.49-0.58c0.55,0,1.03,0.19,1.42,0.58c0.4,0.39,0.6,0.85,0.6,1.4v23.09h11.86
			C416.98,175.82,417.46,176,417.83,176.35z"/>
		<path class="st0" d="M445.47,176.35c0.37,0.36,0.56,0.83,0.56,1.4c0,0.55-0.19,1.01-0.56,1.36c-0.37,0.36-0.85,0.54-1.43,0.54
			h-13.96c-0.58,0-1.05-0.19-1.43-0.58c-0.37-0.39-0.56-0.85-0.56-1.4v-24.95c0-0.55,0.19-1.02,0.58-1.4
			c0.38-0.39,0.88-0.58,1.49-0.58c0.55,0,1.03,0.19,1.42,0.58c0.4,0.39,0.6,0.85,0.6,1.4v23.09h11.86
			C444.62,175.82,445.09,176,445.47,176.35z"/>
		<path class="st0" d="M508.63,151.25c0.37,0.34,0.56,0.81,0.56,1.38c0,0.58-0.19,1.03-0.56,1.36c-0.37,0.33-0.85,0.5-1.42,0.5
			h-7.35v23.18c0,0.55-0.2,1.02-0.6,1.4c-0.4,0.39-0.9,0.58-1.51,0.58c-0.61,0-1.11-0.19-1.51-0.58c-0.4-0.39-0.6-0.85-0.6-1.4
			V154.5h-7.31c-0.58,0-1.05-0.17-1.42-0.52c-0.37-0.34-0.56-0.81-0.56-1.38c0-0.55,0.19-1,0.56-1.34c0.37-0.34,0.85-0.52,1.42-0.52
			h18.88C507.79,150.74,508.26,150.91,508.63,151.25z"/>
		<path class="st0" d="M541.58,177.08c0.17,0.29,0.25,0.59,0.25,0.89c0,0.58-0.19,1.01-0.56,1.28c-0.37,0.28-0.82,0.41-1.34,0.41
			c-0.52,0-0.96-0.11-1.32-0.33c-0.83-0.47-1.5-1.23-2.02-2.27c-0.52-1.05-0.79-2.59-0.79-4.63c0-1.38-0.41-2.4-1.24-3.06
			s-1.9-0.99-3.22-0.99h-8.34v9.3c0,0.58-0.17,1.05-0.5,1.43c-0.33,0.37-0.76,0.56-1.28,0.56c-0.63,0-1.18-0.19-1.63-0.58
			c-0.45-0.39-0.68-0.85-0.68-1.4v-24.95c0-0.55,0.19-1.02,0.58-1.4c0.38-0.39,0.85-0.58,1.4-0.58h11.61c1.49,0,2.85,0.37,4.09,1.09
			c1.24,0.73,2.23,1.74,2.97,3.02c0.74,1.28,1.12,2.72,1.12,4.32c0,1.54-0.41,2.98-1.24,4.32c-0.83,1.34-1.89,2.33-3.18,3
			c1.02,0.52,1.83,1.25,2.42,2.19c0.59,0.94,0.92,2.02,0.97,3.26c0.11,1.57,0.23,2.64,0.37,3.2c0.14,0.56,0.44,0.97,0.91,1.22
			C541.19,176.55,541.42,176.79,541.58,177.08z M534.37,164.12c0.62-0.5,1.12-1.16,1.51-2c0.38-0.84,0.58-1.78,0.58-2.83
			c0-1.32-0.41-2.44-1.22-3.37c-0.81-0.92-1.8-1.38-2.95-1.38h-9.29v10.41h9.42C533.1,164.9,533.75,164.62,534.37,164.12z"/>
		<path class="st0" d="M574.3,177.88c0,0.55-0.19,1.01-0.56,1.36c-0.37,0.36-0.81,0.54-1.3,0.54c-0.39,0-0.74-0.12-1.05-0.35
			c-0.32-0.23-0.57-0.56-0.76-0.97l-2.56-6.07H555.3l-2.52,6.11c-0.14,0.41-0.37,0.73-0.68,0.95s-0.67,0.33-1.05,0.33
			c-0.58,0-1.02-0.15-1.32-0.45c-0.3-0.3-0.46-0.72-0.46-1.24c0-0.11,0.03-0.33,0.08-0.66l10.54-25.53
			c0.19-0.44,0.46-0.78,0.81-1.01c0.34-0.23,0.74-0.32,1.18-0.27c0.41,0,0.78,0.11,1.12,0.33c0.33,0.22,0.56,0.54,0.7,0.95
			l10.49,25.2C574.26,177.34,574.3,177.61,574.3,177.88z M556.87,168.63h9.63l-4.83-11.57L556.87,168.63z"/>
		<path class="st0" d="M602.23,152.68c1.84,1.29,3.24,3.04,4.17,5.23c0.94,2.19,1.4,4.62,1.4,7.29c0,2.7-0.47,5.14-1.4,7.33
			c-0.94,2.19-2.33,3.92-4.17,5.21c-1.85,1.28-4.06,1.92-6.65,1.92h-10.16c-0.55,0-1.02-0.19-1.4-0.58
			c-0.39-0.39-0.58-0.85-0.58-1.4v-24.95c0-0.55,0.19-1.02,0.58-1.4c0.38-0.39,0.85-0.58,1.4-0.58h10.16
			C598.17,150.74,600.38,151.39,602.23,152.68z M601.48,172.86c1.4-2,2.11-4.55,2.11-7.66c0-3.08-0.71-5.63-2.13-7.64
			c-1.42-2.01-3.52-3.02-6.3-3.02h-7.64v21.32h7.64C597.97,175.86,600.08,174.86,601.48,172.86z"/>
		<path class="st0" d="M635.8,176.44c0.37,0.39,0.56,0.84,0.56,1.36c0,0.55-0.19,1-0.56,1.34c-0.37,0.34-0.85,0.52-1.43,0.52h-14.38
			c-0.55,0-1.02-0.19-1.4-0.58c-0.39-0.39-0.58-0.85-0.58-1.4v-24.95c0-0.55,0.19-1.02,0.58-1.4c0.38-0.39,0.85-0.58,1.4-0.58h14.38
			c0.58,0,1.05,0.18,1.43,0.54c0.37,0.36,0.56,0.83,0.56,1.4c0,0.55-0.19,1-0.56,1.34c-0.37,0.34-0.85,0.52-1.43,0.52H622.1v8.43
			h10.41c0.58,0,1.05,0.18,1.43,0.54c0.37,0.36,0.56,0.81,0.56,1.36c0,0.58-0.19,1.03-0.56,1.36s-0.85,0.5-1.43,0.5H622.1v9.13
			h12.27C634.95,175.86,635.42,176.05,635.8,176.44z"/>
	</g>
	<g>
		<path class="st0" d="M321.86,171.37c-0.21-0.23-0.28-0.53-0.23-0.89l0.33-3.51c0.03-0.08,0.01-0.14-0.04-0.17
			c-0.06-0.03-0.12-0.01-0.21,0.04l-2.89,2.02c-0.25,0.17-0.5,0.25-0.74,0.25c-0.39,0-0.7-0.19-0.95-0.58
			c-0.11-0.22-0.17-0.44-0.17-0.66c0-0.44,0.23-0.77,0.7-0.99l3.26-1.49c0.08-0.03,0.12-0.07,0.12-0.12s-0.04-0.1-0.12-0.12
			l-3.26-1.49c-0.22-0.11-0.39-0.25-0.52-0.43s-0.19-0.38-0.19-0.6c0-0.22,0.06-0.43,0.17-0.62c0.25-0.39,0.58-0.58,0.99-0.58
			c0.19,0,0.43,0.07,0.7,0.21l2.89,2.11c0.08,0.06,0.15,0.07,0.21,0.04c0.05-0.03,0.07-0.08,0.04-0.17l-0.33-3.51
			c-0.03-0.36,0.06-0.66,0.27-0.91c0.21-0.25,0.5-0.37,0.89-0.37c0.33,0,0.6,0.12,0.81,0.37c0.21,0.25,0.3,0.55,0.27,0.91
			l-0.33,3.51c-0.03,0.08-0.01,0.14,0.04,0.17c0.05,0.03,0.12,0.01,0.21-0.04l2.89-2.07c0.22-0.17,0.46-0.25,0.7-0.25
			c0.44,0,0.77,0.19,0.99,0.58c0.11,0.19,0.17,0.4,0.17,0.62c0,0.47-0.25,0.81-0.74,1.03l-3.22,1.49c-0.08,0.03-0.12,0.07-0.12,0.12
			s0.04,0.1,0.12,0.12l3.22,1.49c0.5,0.25,0.74,0.61,0.74,1.07c0,0.11-0.06,0.3-0.17,0.58c-0.28,0.41-0.61,0.62-0.99,0.62
			c-0.28,0-0.51-0.08-0.7-0.25l-2.89-2.07c-0.08-0.05-0.15-0.07-0.21-0.04c-0.06,0.03-0.07,0.08-0.04,0.17l0.33,3.51
			c0.03,0.36-0.07,0.65-0.29,0.89c-0.22,0.23-0.51,0.35-0.87,0.35C322.35,171.72,322.07,171.6,321.86,171.37z"/>
	</g>
	<g>
		<path class="st0" d="M467.69,171.37c-0.21-0.23-0.28-0.53-0.23-0.89l0.33-3.51c0.03-0.08,0.01-0.14-0.04-0.17
			c-0.06-0.03-0.12-0.01-0.21,0.04l-2.89,2.02c-0.25,0.17-0.5,0.25-0.74,0.25c-0.39,0-0.7-0.19-0.95-0.58
			c-0.11-0.22-0.17-0.44-0.17-0.66c0-0.44,0.23-0.77,0.7-0.99l3.26-1.49c0.08-0.03,0.12-0.07,0.12-0.12s-0.04-0.1-0.12-0.12
			l-3.26-1.49c-0.22-0.11-0.39-0.25-0.52-0.43s-0.19-0.38-0.19-0.6c0-0.22,0.06-0.43,0.17-0.62c0.25-0.39,0.58-0.58,0.99-0.58
			c0.19,0,0.43,0.07,0.7,0.21l2.89,2.11c0.08,0.06,0.15,0.07,0.21,0.04c0.05-0.03,0.07-0.08,0.04-0.17l-0.33-3.51
			c-0.03-0.36,0.06-0.66,0.27-0.91c0.21-0.25,0.5-0.37,0.89-0.37c0.33,0,0.6,0.12,0.81,0.37c0.21,0.25,0.3,0.55,0.27,0.91
			l-0.33,3.51c-0.03,0.08-0.01,0.14,0.04,0.17c0.05,0.03,0.12,0.01,0.21-0.04l2.89-2.07c0.22-0.17,0.46-0.25,0.7-0.25
			c0.44,0,0.77,0.19,0.99,0.58c0.11,0.19,0.17,0.4,0.17,0.62c0,0.47-0.25,0.81-0.74,1.03l-3.22,1.49c-0.08,0.03-0.12,0.07-0.12,0.12
			s0.04,0.1,0.12,0.12l3.22,1.49c0.5,0.25,0.74,0.61,0.74,1.07c0,0.11-0.06,0.3-0.17,0.58c-0.28,0.41-0.61,0.62-0.99,0.62
			c-0.28,0-0.51-0.08-0.7-0.25l-2.89-2.07c-0.08-0.05-0.15-0.07-0.21-0.04c-0.06,0.03-0.07,0.08-0.04,0.17l0.33,3.51
			c0.03,0.36-0.07,0.65-0.29,0.89c-0.22,0.23-0.51,0.35-0.87,0.35C468.18,171.72,467.9,171.6,467.69,171.37z"/>
	</g>
	<g>
		<g>
			<path class="st1" d="M190.8,33.62V161.4c0,16.62-13.6,30.22-30.22,30.22H32.8c-16.62,0-30.22-13.6-30.22-30.22V33.62
				C2.58,17,16.18,3.4,32.8,3.4h88.16l-9.25,16.45l-0.02,0.03c-0.9,1.59-1.73,3.15-2.49,4.67L89.61,61c-0.77,0-0.53-0.08-1.08-0.08
				c-11.75,0.52-18.51,2.81-20.3,6.9c-1.02,2.29-0.89,4.27,0.39,5.93c1.27,1.66,3.25,2.49,5.93,2.49s5.29-0.25,7.85-0.77
				l-18.76,41.74c-8.17,18.12-12.25,31.65-12.25,40.59c0,2.55,0.25,4.72,0.76,6.5c3.32,9.7,10.08,14.55,20.29,14.55
				c4.34,0,9.7-1.15,16.09-3.44c10.97-4.09,24.62-14.94,40.97-32.55c11.36-12.22,18.1-20.76,20.22-25.65c0,0,0,0,0.01-0.01
				c0.9-2.07,0.96-3.49,0.18-4.24c-0.14-0.14-0.31-0.25-0.51-0.35c-1.53-0.76-2.81-0.51-3.83,0.77
				c-7.4,10.21-17.03,20.68-28.91,31.4c-11.87,10.72-21.11,17.87-27.75,21.44c-6.64,3.57-11.74,3.32-15.32-0.77
				c-2.04-2.3-3.06-5.23-3.06-8.8c0-3.58,0.13-6.52,0.38-8.81c0.76-7.91,25.27-60.5,29.1-66.62c1.78-3.06,3.32-5.75,4.6-8.04
				c23.22-2.55,37.83-4.66,43.83-6.32c1.35-0.37,2.55-0.74,3.59-1.11c3.61-1.26,5.41-2.48,5.41-3.68c0-1.15-1.72-1.78-5.16-1.9
				c-0.36-0.01-0.75-0.01-1.15-0.01c-4.22,0-16.15,0.89-35.8,2.68l-4.98,0.38l19.53-33.85l11.28-19.56l3.69-6.41h15.73
				C177.2,3.4,190.8,17,190.8,33.62z"/>
		</g>
		<g>
			<path class="st2" d="M154.9,120.92c-0.4,5.64-40.95,65.26-70.83,70.7c-2.82,0.51-5.54,0.54-8.13,0H32.8
				c-16.62,0-30.22-13.6-30.22-30.22V33.62C2.58,17,16.18,3.4,32.8,3.4h88.16l-9.25,16.45l-0.02,0.03c-0.9,1.59-1.73,3.15-2.49,4.67
				L89.61,61c-0.77,0-0.53-0.08-1.08-0.08c-11.75,0.52-18.51,2.81-20.3,6.9c-1.02,2.29-0.89,4.27,0.39,5.93
				c1.27,1.66,3.25,2.49,5.93,2.49s5.29-0.25,7.85-0.77l-18.76,41.74c-8.17,18.12-12.25,31.65-12.25,40.59
				c0,2.55,0.25,4.72,0.76,6.5c3.32,9.7,10.08,14.55,20.29,14.55c4.34,0,9.7-1.15,16.09-3.44c10.97-4.09,24.62-14.94,40.97-32.55
				c11.36-12.22,18.1-20.76,20.22-25.65c0,0,0,0,0.01-0.01C149.88,117.14,155.34,114.83,154.9,120.92z"/>
		</g>
		<g>
			<g>
				<path class="st3" d="M63.64,117.21l-0.6,1.14C63.29,117.92,63.49,117.54,63.64,117.21z"/>
			</g>
		</g>
	</g>
	<g>
		<g>
			<path class="st1" d="M252.69,66.56v29.57c0,7.18,6.18,7.85,17.21,7.18v22.72c-32.74,3.34-42.27-6.52-42.27-29.9V66.56h-13.36
				V42.5h13.36V26.63l25.06-7.52V42.5h17.21v24.06H252.69z"/>
		</g>
		<g>
			<path class="st1" d="M335.88,40.83v28.4c-10.36-1.67-25.06,2.51-25.06,19.04v37.76h-25.06V42.5h25.06v14.87
				C314.16,46.18,325.35,40.83,335.88,40.83z"/>
		</g>
		<g>
			<path class="st1" d="M430.77,42.5v83.53h-25.06v-7.85c-5.51,6.35-13.7,10.19-24.89,10.19c-21.88,0-39.93-19.21-39.93-44.1
				s18.04-44.1,39.93-44.1c11.19,0,19.38,3.84,24.89,10.19V42.5H430.77z M405.71,84.27c0-12.53-8.35-20.38-19.88-20.38
				c-11.53,0-19.88,7.85-19.88,20.38c0,12.53,8.35,20.38,19.88,20.38C397.36,104.65,405.71,96.8,405.71,84.27z"/>
		</g>
		<g>
			<path class="st1" d="M534.84,9.09v116.94h-25.06v-7.85c-5.51,6.35-13.7,10.19-24.89,10.19c-21.88,0-39.93-19.21-39.93-44.1
				s18.04-44.1,39.93-44.1c11.19,0,19.38,3.84,24.89,10.19V9.09H534.84z M509.79,84.27c0-12.53-8.35-20.38-19.88-20.38
				c-11.53,0-19.88,7.85-19.88,20.38c0,12.53,8.35,20.38,19.88,20.38C501.43,104.65,509.79,96.8,509.79,84.27z"/>
		</g>
		<g>
			<path class="st1" d="M595.65,105.99c6.85,0,12.7-2.67,16.04-6.35l20.05,11.53c-8.19,11.36-20.55,17.21-36.42,17.21
				c-28.57,0-46.28-19.21-46.28-44.1s18.04-44.1,44.44-44.1c24.39,0,42.43,18.88,42.43,44.1c0,3.51-0.33,6.85-1,10.02H575.6
				C578.78,102.98,586.46,105.99,595.65,105.99z M611.02,75.58c-2.67-9.69-10.19-13.2-17.71-13.2c-9.52,0-15.87,4.68-18.21,13.2
				H611.02z"/>
		</g>
	</g>
</g>
</svg>
